<svg xmlns="http://www.w3.org/2000/svg" viewBox="0 0 512 512" role="img" aria-label="Gracious monogram, white">
<g transform="translate(121.3 116) scale(5.52)" fill="#ffffff">
<path d="M48.79 28V49.84H42.77V46.97C40.9967 47.9033 38.7567 48.7667 36.05 49.56C33.3433 50.3067 30.24 50.68 26.74 50.68C22.0733 50.68 18.06 49.9567 14.7 48.51C11.34 47.0167 8.56333 45.0567 6.37 42.63C4.22333 40.1567 2.61333 37.38 1.54 34.3C0.513333 31.1733 0 27.9533 0 24.64C0 20.7667 0.676666 17.3133 2.03 14.28C3.38333 11.2 5.27333 8.61 7.7 6.51C10.1267 4.41 12.9967 2.8 16.31 1.68C19.67 0.56 23.3333 0 27.3 0C30.7533 0 33.74 0.396666 36.26 1.19C38.8267 1.93667 40.9733 2.87 42.7 3.99C44.4267 5.11 45.78 6.32333 46.76 7.63C47.7867 8.89 48.51 10.0333 48.93 11.06H43.89C43.61 10.08 42.98 9.12333 42 8.19C41.0667 7.21 39.8533 6.34666 38.36 5.6C36.8667 4.85333 35.1633 4.24667 33.25 3.78C31.3367 3.31333 29.2833 3.08 27.09 3.08C23.7767 3.08 20.86 3.61666 18.34 4.69C15.8667 5.76333 13.7667 7.28 12.04 9.24C10.3133 11.2 9.00667 13.5333 8.12 16.24C7.28 18.9467 6.86 21.91 6.86 25.13C6.86 28.3967 7.30333 31.4067 8.19 34.16C9.12333 36.8667 10.5 39.2233 12.32 41.23C14.14 43.19 16.4267 44.73 19.18 45.85C21.9333 46.97 25.1533 47.53 28.84 47.53C31.64 47.53 34.1367 47.2033 36.33 46.55C38.5233 45.8967 40.67 44.8933 42.77 43.54V30.87H34.93V28H48.79Z"/>
</g>
</svg>
